# xmcd CD database file
#
# Track frame offsets:
#	150
#	13500
#	36820
#	46825
#	63220
#	77925
#	89230
#	103355
#	117638
#	132693
#	140093
#	153308
#	164778
#	183665
#	194318
#	203725
#	216818
#	227958
#	240705
#	250058
#	260975
#
# Disc length: 3622 seconds
#
# Revision: 4
# Processed by: cddbd v1.5.2PL0 Copyright (c) Steve Scherf et al.
# Submitted via: CDex 1.70beta2
#
DISCID=4a0e2415
DTITLE=Anita Lindblom - Minns du den sången - CD1
DYEAR=1999
DGENRE=Svensktopp
TTITLE0=En dans på rosor - (1971)
TTITLE1=Ja det var då - (1968)
TTITLE2=Bara du - (1961)
TTITLE3=Kring de små husen i grändarna vid hamnen - (1968)
TTITLE4=Visa till min vän - (1973)
TTITLE5=Alexanders ragtime band - (1968)
TTITLE6=Feber - (1958)
TTITLE7=Säg ja, Cherie - (1969)
TTITLE8=Svenska flickan kysser med öppen mun - (1958)
TTITLE9=Alundavisan - (1965)
TTITLE10=Jalousie - (1967)
TTITLE11=Balladen om de blå basken - (1966)
TTITLE12=Milord - (1960)
TTITLE13=Nej, jag ångrar ingenting- (1961)
TTITLE14=En dans på logen - (1973)
TTITLE15=En hård dags natt - (1966)
TTITLE16=Ein bischen mut - (1962)
TTITLE17=En tröst för mitt hjärta - (1966)
TTITLE18=Som jag gör - (1962)
TTITLE19=Gulla paviljongen - (1974)
TTITLE20=Uptown - (1962)
EXTD=YEAR: 1999
EXTT0=
EXTT1=
EXTT2=
EXTT3=
EXTT4=
EXTT5=
EXTT6=
EXTT7=
EXTT8=
EXTT9=
EXTT10=
EXTT11=
EXTT12=
EXTT13=
EXTT14=
EXTT15=
EXTT16=
EXTT17=
EXTT18=
EXTT19=
EXTT20=
PLAYORDER=
